<svg xmlns="http://www.w3.org/2000/svg" viewBox="0 0 485.16 181.32"><defs><style>.cls-1{isolation:isolate;}.cls-2{fill:#b1965f;}.cls-3{fill:#fff;}.cls-4{fill:#020c2c;}.cls-5{fill:#999ea1;opacity:0.5;mix-blend-mode:multiply;}</style></defs><title>logo</title><g class="cls-1"><g id="Layer_2" data-name="Layer 2"><g id="Calque_1" data-name="Calque 1"><g id="_Group_" data-name="&lt;Group&gt;"><circle id="_Ellipse_" data-name="&lt;Ellipse&gt;" class="cls-2" cx="242.58" cy="63.79" r="63.79"/><path id="_Path_" data-name="&lt;Path&gt;" class="cls-3" d="M253.13,38.64l-7,17.72,7.79,21s3.17,8.69,9.83,12.75c5.35,3.27,9.26,3.71,10.44,3.71Z"/><path id="_Compound_Path_" data-name="&lt;Compound Path&gt;" class="cls-4" d="M244,14.77H242.1c-27.48,66-28.49,68.88-28.49,68.88-3.44,8.1-6,8.07-8.57,8.15v1.95h31.23V91.84c-5.6,0-6.48-3.1-4.23-8.44h0v0l5.43-13.66,2.81-7.06,11.21-28.21Zm-1.43,20.08A1.87,1.87,0,1,1,244.45,33,1.87,1.87,0,0,1,242.58,34.85Z"/><g id="_Group_2" data-name="&lt;Group&gt;"><path id="_Path_2" data-name="&lt;Path&gt;" class="cls-5" d="M251.45,54.26a66.4,66.4,0,0,1,3.42-11l-1.75-4.58-7,17.72,4.13,11.12C249.9,65.49,250,60.26,251.45,54.26Z"/></g></g><g id="_Group_3" data-name="&lt;Group&gt;"><g id="_Group_4" data-name="&lt;Group&gt;"><path id="_Compound_Path_2" data-name="&lt;Compound Path&gt;" class="cls-4" d="M3.27,177.25h8v3H0V154H3.27Z"/><path id="_Compound_Path_3" data-name="&lt;Compound Path&gt;" class="cls-4" d="M15.14,154h14.1v3H18.42v7.35H28.94v3H18.42v9.93H29.25v3H15.14Z"/><path id="_Compound_Path_4" data-name="&lt;Compound Path&gt;" class="cls-4" d="M46.69,159a4.5,4.5,0,0,0-4.21-2.47c-2.09,0-4.39,1.43-4.39,3.73,0,2.05,2,3.13,3.66,3.76l1.88.73c3.73,1.46,6.51,3.52,6.51,7.91a8.1,8.1,0,0,1-8.39,8.19,8.18,8.18,0,0,1-8.12-7.35l3.31-.7a5,5,0,1,0,9.93-.14c0-2.82-2.26-4-4.53-5l-1.81-.77c-3-1.29-5.71-3-5.71-6.65,0-4.25,3.76-6.79,7.73-6.79a7.49,7.49,0,0,1,6.76,4Z"/><path id="_Compound_Path_5" data-name="&lt;Compound Path&gt;" class="cls-4" d="M65.76,173.66l-3,6.58H59.25l12.54-27.37,12.54,27.37H80.81l-3-6.58Zm6-13.62-4.67,10.62h9.33Z"/><path id="_Compound_Path_6" data-name="&lt;Compound Path&gt;" class="cls-4" d="M104.58,180.24h-4l-7.73-11.11H91.52v11.11H88.25V154h4c2.33,0,4.84,0,6.93,1.22a7.27,7.27,0,0,1,3.45,6.27,7.15,7.15,0,0,1-6.3,7.35ZM91.52,166.42h1c3.34,0,7-.63,7-4.81s-3.9-4.7-7.14-4.7h-.87Z"/><path id="_Compound_Path_7" data-name="&lt;Compound Path&gt;" class="cls-4" d="M115.27,180.24H112V157h-6.23v-3h15.74v3h-6.23Z"/><path id="_Compound_Path_8" data-name="&lt;Compound Path&gt;" class="cls-4" d="M129,180.24h-3.28V154H129Z"/><path id="_Compound_Path_9" data-name="&lt;Compound Path&gt;" class="cls-4" d="M147.3,159a4.5,4.5,0,0,0-4.21-2.47c-2.09,0-4.39,1.43-4.39,3.73,0,2.05,2,3.13,3.66,3.76l1.88.73c3.73,1.46,6.51,3.52,6.51,7.91a8.09,8.09,0,0,1-8.39,8.19,8.18,8.18,0,0,1-8.12-7.35l3.31-.7a5,5,0,1,0,9.93-.14c0-2.82-2.26-4-4.53-5l-1.81-.77c-3-1.29-5.71-3-5.71-6.65,0-4.25,3.76-6.79,7.73-6.79a7.49,7.49,0,0,1,6.76,4Z"/><path id="_Compound_Path_10" data-name="&lt;Compound Path&gt;" class="cls-4" d="M159.79,173.66l-3,6.58h-3.52l12.54-27.37,12.54,27.37h-3.52l-3-6.58Zm6-13.62-4.67,10.62h9.33Z"/><path id="_Compound_Path_11" data-name="&lt;Compound Path&gt;" class="cls-4" d="M182,152.73l19.71,20.65V154H205v27.34l-19.71-20.65v19.57H182Z"/><path id="_Compound_Path_12" data-name="&lt;Compound Path&gt;" class="cls-4" d="M223,159a4.5,4.5,0,0,0-4.21-2.47c-2.09,0-4.39,1.43-4.39,3.73,0,2.05,2,3.13,3.66,3.76l1.88.73c3.73,1.46,6.51,3.52,6.51,7.91a8.1,8.1,0,0,1-8.39,8.19,8.18,8.18,0,0,1-8.12-7.35l3.31-.7a5,5,0,1,0,9.93-.14c0-2.82-2.26-4-4.53-5l-1.81-.77c-3-1.29-5.71-3-5.71-6.65,0-4.25,3.76-6.79,7.73-6.79a7.49,7.49,0,0,1,6.76,4Z"/></g><g id="_Group_5" data-name="&lt;Group&gt;"><path id="_Compound_Path_13" data-name="&lt;Compound Path&gt;" class="cls-4" d="M249.74,153.88h5.56c8.23,0,15.08,4.35,15.08,13.29,0,9.16-6.7,13.58-15.18,13.58h-5.45Zm3.35,23.81h1.18c6.84,0,12.76-2.57,12.76-10.37s-5.92-10.37-12.76-10.37h-1.18Z"/><path id="_Compound_Path_14" data-name="&lt;Compound Path&gt;" class="cls-4" d="M279.27,153.88v15.86c0,4.38,1.32,8.45,6.49,8.45s6.49-4.06,6.49-8.45V153.88h3.35v17c0,5.92-3.67,10.44-9.84,10.44s-9.84-4.53-9.84-10.44v-17Z"/><path id="_Compound_Path_15" data-name="&lt;Compound Path&gt;" class="cls-4" d="M332.75,159A10.69,10.69,0,0,0,315,167.35a10.57,10.57,0,0,0,17.71,8.13v4a14.53,14.53,0,0,1-7.06,1.89,13.91,13.91,0,0,1-14-13.86A14.12,14.12,0,0,1,326,153.31a13,13,0,0,1,6.77,1.82Z"/><path id="_Compound_Path_16" data-name="&lt;Compound Path&gt;" class="cls-4" d="M365.68,167.32a14.08,14.08,0,0,1-28.16,0,14.08,14.08,0,0,1,28.16,0Zm-3.35,0a10.73,10.73,0,1,0-21.46,0,10.73,10.73,0,1,0,21.46,0Z"/><path id="_Compound_Path_17" data-name="&lt;Compound Path&gt;" class="cls-4" d="M374.46,153.88v15.86c0,4.38,1.32,8.45,6.49,8.45s6.49-4.06,6.49-8.45V153.88h3.35v17c0,5.92-3.67,10.44-9.84,10.44s-9.84-4.53-9.84-10.44v-17Z"/><path id="_Compound_Path_18" data-name="&lt;Compound Path&gt;" class="cls-4" d="M405.32,180.75H402V156.94h-6.38v-3.07H411.7v3.07h-6.38Z"/><path id="_Compound_Path_19" data-name="&lt;Compound Path&gt;" class="cls-4" d="M417,153.88h14.43v3.07H420.35v7.52h10.76v3.07H420.35v10.16h11.08v3.07H417Z"/><path id="_Compound_Path_20" data-name="&lt;Compound Path&gt;" class="cls-4" d="M442,174,439,180.75h-3.6l12.83-28,12.83,28h-3.6L454.38,174Zm6.17-13.94L443.43,171H453Z"/><path id="_Compound_Path_21" data-name="&lt;Compound Path&gt;" class="cls-4" d="M468.83,153.79v15.86c0,4.38,1.32,8.45,6.49,8.45s6.49-4.06,6.49-8.45V153.79h3.35v17c0,5.92-3.67,10.44-9.84,10.44s-9.84-4.53-9.84-10.44v-17Z"/></g></g></g></g></g></svg>
